{"title":"One Piece - 632 [HD 720p] [ENG SUBBED] [GWC].mkv","uid":9593360,"size":76988681,"categoryP":"video","categoryS":"tv_shows","magnet":"?xt=urn:btih:fa4f24269d98063991f20add772f2f824e1595b6&amp;dn=One+Piece+-+632+%5BHD+720p%5D+%5BENG+SUBBED%5D+%5BGWC%5D.mkv&amp;tr=udp%3A%2F%2Ftracker.openbittorrent.com%3A80&amp;tr=udp%3A%2F%2Fopen.demonii.com%3A1337&amp;tr=udp%3A%2F%2Ftracker.coppersurfer.tk%3A6969&amp;tr=udp%3A%2F%2Fexodus.desync.com%3A6969","seeders":0,"leechers":1,"uploader":"canc232","files":1,"time":1391959127,"description":"One Piece - 632 [HD 720p] [ENG SUBBED] [GWC]\n\nPLOT :\nIt was a time when pirates ruled the seas. Several bands of pirates were battling over the great hidden treasure, One Piece, which was left by the now legendary pirate captain, Gold Roger. There was a young boy who admired the pirates, his name was Monkey D. Luffy. One day, he mistakenly eats the devil's fruit and turns himself into a rubber human being.\n\nTen years have passed since that incident. Luffy sets out to sail all alone. He sets out to become a great pirate captain and that's when his great adventure begins. &quot;I'm going to be the Pirate King! I'm going to get One Piece!&quot;. \n\n\n\nTHUMBNAIL IMAGE ; &lt;a href=&quot;\nhttp://img691.imageshack.us/img691/4856/h44o.jpg&quot; rel=&quot;nofollow&quot; target=&quot;_NEW&quot;&gt;\nhttp://img691.imageshack.us/img691/4856/h44o.jpg&lt;/a&gt;\n\n\nMEDIA INFO :\nGeneral \nFormat : Matroska \nFile size : 73.4 MiB \nDuration : 20mn 38s \nOverall bit rate : 497 Kbps \nWriting application : mkvmerge v6.7.0 ('Back to the Ground') \n\nVideo \nFormat : AVC \nFormat profile : &lt;a class=&quot;__cf_email__&quot; href=&quot;/cdn-cgi/l/email-protection&quot; data-cfemail=&quot;93dbfaf4fbd3dfa7bda2&quot;&gt;[email&amp;#160;protected]&lt;/a&gt;&lt;script cf-hash='f9e31' type=&quot;text/javascript&quot;&gt;\n/* &lt;![CDATA[ */!function(){try{var t=&quot;currentScript&quot;in document?document.currentScript:function(){for(var t=document.getElementsByTagName(&quot;script&quot;),e=t.length;e--;)if(t[e].getAttribute(&quot;cf-hash&quot;))return t[e]}();if(t&amp;&amp;t.previousSibling){var e,r,n,i,c=t.previousSibling,a=c.getAttribute(&quot;data-cfemail&quot;);if(a){for(e=&quot;&quot;,r=parseInt(a.substr(0,2),16),n=2;a.length-n;n+=2)i=parseInt(a.substr(n,2),16)^r,e+=String.fromCharCode(i);e=document.createTextNode(e),c.parentNode.replaceChild(e,c)}}}catch(u){}}();/* ]]&gt; */&lt;/script&gt; \nFormat settings, CABAC : Yes \nFormat settings, ReFrames : 11 frames \nDuration : 20mn 38s \nBit rate : 432 Kbps \nWidth : 1 280 pixels \nHeight : 720 pixels \nDisplay aspect ratio : 16:9 \nFrame rate mode : Constant \nFrame rate : 29.970 fps \nStream size : 63.7 MiB (87%) \nTitle : One Piece - 632 [HD 720p] [ENG SUBBED] [GWC] \nLanguage : English \n\nAudio \nFormat : Vorbis \nDuration : 20mn 38s \nBit rate mode : Variable \nChannel(s) : 2 channels \nSampling rate : 44.1 KHz \nStream size : 8.27 MiB (11%) \nWriting library : aoTuV 20110424\n\nText \nFormat : UTF-8 \nTitle : [GWC] \nLanguage : English","torrent":{"xt":"urn:btih:fa4f24269d98063991f20add772f2f824e1595b6","amp;dn":"One+Piece+-+632+%5BHD+720p%5D+%5BENG+SUBBED%5D+%5BGWC%5D.mkv","amp;tr":["udp%3A%2F%2Ftracker.openbittorrent.com%3A80","udp%3A%2F%2Fopen.demonii.com%3A1337","udp%3A%2F%2Ftracker.coppersurfer.tk%3A6969","udp%3A%2F%2Fexodus.desync.com%3A6969"],"infoHash":"fa4f24269d98063991f20add772f2f824e1595b6","infoHashBuffer":{"type":"Buffer","data":[250,79,36,38,157,152,6,57,145,242,10,221,119,47,47,130,78,21,149,182]},"announce":[],"urlList":[]}}